<mxfile host="app.diagrams.net" agent="Mozilla/5.0 (Macintosh; Intel Mac OS X 10_15_7) AppleWebKit/537.36 (KHTML, like Gecko) Chrome/140.0.0.0 Safari/537.36" version="28.2.3">
  <diagram name="Page-1" id="luk1v1AyWL6ehyvI88NP">
    <mxGraphModel dx="2370" dy="1288" grid="1" gridSize="10" guides="1" tooltips="1" connect="1" arrows="1" fold="1" page="1" pageScale="1" pageWidth="827" pageHeight="1169" math="0" shadow="0">
      <root>
        <mxCell id="0" />
        <mxCell id="1" parent="0" />
        <mxCell id="pqa-w2zQJshGWEPNDhzT-5" style="edgeStyle=orthogonalEdgeStyle;rounded=0;orthogonalLoop=1;jettySize=auto;html=1;exitX=1;exitY=0.75;exitDx=0;exitDy=0;entryX=0.5;entryY=0;entryDx=0;entryDy=0;" edge="1" parent="1" source="pqa-w2zQJshGWEPNDhzT-1" target="pqa-w2zQJshGWEPNDhzT-4">
          <mxGeometry relative="1" as="geometry" />
        </mxCell>
        <mxCell id="pqa-w2zQJshGWEPNDhzT-1" value="&lt;div&gt;&lt;br&gt;&lt;/div&gt;&lt;div&gt;&lt;br&gt;&lt;/div&gt;&lt;div&gt;Client&lt;/div&gt;" style="shape=actor;whiteSpace=wrap;html=1;" vertex="1" parent="1">
          <mxGeometry x="40" y="140" width="40" height="60" as="geometry" />
        </mxCell>
        <mxCell id="pqa-w2zQJshGWEPNDhzT-9" style="edgeStyle=orthogonalEdgeStyle;rounded=0;orthogonalLoop=1;jettySize=auto;html=1;exitX=1;exitY=0.75;exitDx=0;exitDy=0;entryX=0;entryY=0.5;entryDx=0;entryDy=0;" edge="1" parent="1" source="pqa-w2zQJshGWEPNDhzT-2" target="pqa-w2zQJshGWEPNDhzT-4">
          <mxGeometry relative="1" as="geometry" />
        </mxCell>
        <mxCell id="pqa-w2zQJshGWEPNDhzT-2" value="&lt;div&gt;&lt;br&gt;&lt;/div&gt;&lt;div&gt;&lt;br&gt;&lt;/div&gt;&lt;div&gt;Clinet&lt;/div&gt;" style="shape=actor;whiteSpace=wrap;html=1;" vertex="1" parent="1">
          <mxGeometry x="40" y="245" width="40" height="60" as="geometry" />
        </mxCell>
        <mxCell id="pqa-w2zQJshGWEPNDhzT-6" style="edgeStyle=orthogonalEdgeStyle;rounded=0;orthogonalLoop=1;jettySize=auto;html=1;exitX=1;exitY=0.75;exitDx=0;exitDy=0;entryX=0.5;entryY=1;entryDx=0;entryDy=0;" edge="1" parent="1" source="pqa-w2zQJshGWEPNDhzT-3" target="pqa-w2zQJshGWEPNDhzT-4">
          <mxGeometry relative="1" as="geometry" />
        </mxCell>
        <mxCell id="pqa-w2zQJshGWEPNDhzT-3" value="&lt;div&gt;&lt;br&gt;&lt;/div&gt;&lt;div&gt;&lt;br&gt;&lt;/div&gt;&lt;div&gt;Client&lt;/div&gt;" style="shape=actor;whiteSpace=wrap;html=1;" vertex="1" parent="1">
          <mxGeometry x="40" y="350" width="40" height="60" as="geometry" />
        </mxCell>
        <mxCell id="pqa-w2zQJshGWEPNDhzT-4" value="Load&lt;div&gt;Balancer&lt;/div&gt;" style="rhombus;whiteSpace=wrap;html=1;" vertex="1" parent="1">
          <mxGeometry x="160" y="250" width="80" height="80" as="geometry" />
        </mxCell>
        <mxCell id="pqa-w2zQJshGWEPNDhzT-10" value="Fontend" style="swimlane;startSize=20;whiteSpace=wrap;html=1;dashed=1;" vertex="1" parent="1">
          <mxGeometry x="280" y="40" width="200" height="480" as="geometry" />
        </mxCell>
        <mxCell id="pqa-w2zQJshGWEPNDhzT-32" value="" style="group" vertex="1" connectable="0" parent="pqa-w2zQJshGWEPNDhzT-10">
          <mxGeometry x="35" y="80" width="130" height="310" as="geometry" />
        </mxCell>
        <mxCell id="pqa-w2zQJshGWEPNDhzT-76" style="edgeStyle=orthogonalEdgeStyle;rounded=0;orthogonalLoop=1;jettySize=auto;html=1;exitX=1;exitY=0.5;exitDx=0;exitDy=0;" edge="1" parent="pqa-w2zQJshGWEPNDhzT-32" source="pqa-w2zQJshGWEPNDhzT-15">
          <mxGeometry relative="1" as="geometry">
            <mxPoint x="155" y="159.66666666666674" as="targetPoint" />
          </mxGeometry>
        </mxCell>
        <mxCell id="pqa-w2zQJshGWEPNDhzT-15" value="" style="rounded=0;whiteSpace=wrap;html=1;" vertex="1" parent="pqa-w2zQJshGWEPNDhzT-32">
          <mxGeometry x="10" y="10" width="120" height="300" as="geometry" />
        </mxCell>
        <mxCell id="pqa-w2zQJshGWEPNDhzT-16" value="" style="rounded=0;whiteSpace=wrap;html=1;" vertex="1" parent="pqa-w2zQJshGWEPNDhzT-32">
          <mxGeometry width="120" height="300" as="geometry" />
        </mxCell>
        <mxCell id="pqa-w2zQJshGWEPNDhzT-17" value="UI" style="text;html=1;align=center;verticalAlign=middle;resizable=0;points=[];autosize=1;strokeColor=none;fillColor=none;" vertex="1" parent="pqa-w2zQJshGWEPNDhzT-32">
          <mxGeometry x="40" y="10" width="40" height="30" as="geometry" />
        </mxCell>
        <mxCell id="pqa-w2zQJshGWEPNDhzT-18" value="SPA" style="text;html=1;align=center;verticalAlign=middle;resizable=0;points=[];autosize=1;strokeColor=none;fillColor=none;" vertex="1" parent="pqa-w2zQJshGWEPNDhzT-32">
          <mxGeometry x="35" y="135" width="50" height="30" as="geometry" />
        </mxCell>
        <mxCell id="pqa-w2zQJshGWEPNDhzT-11" value="Backend" style="swimlane;startSize=20;whiteSpace=wrap;html=1;dashed=1;" vertex="1" parent="1">
          <mxGeometry x="480" y="40" width="880" height="480" as="geometry" />
        </mxCell>
        <mxCell id="pqa-w2zQJshGWEPNDhzT-23" value="" style="group" vertex="1" connectable="0" parent="pqa-w2zQJshGWEPNDhzT-11">
          <mxGeometry x="90" y="60" width="750" height="390" as="geometry" />
        </mxCell>
        <mxCell id="pqa-w2zQJshGWEPNDhzT-19" value="" style="rounded=0;whiteSpace=wrap;html=1;" vertex="1" parent="pqa-w2zQJshGWEPNDhzT-23">
          <mxGeometry x="24.4299674267101" y="20" width="725.57003257329" height="370" as="geometry" />
        </mxCell>
        <mxCell id="pqa-w2zQJshGWEPNDhzT-21" value="" style="rounded=0;whiteSpace=wrap;html=1;" vertex="1" parent="pqa-w2zQJshGWEPNDhzT-23">
          <mxGeometry x="12.21498371335505" y="10" width="725.57003257329" height="370" as="geometry" />
        </mxCell>
        <mxCell id="pqa-w2zQJshGWEPNDhzT-22" value="" style="rounded=0;whiteSpace=wrap;html=1;" vertex="1" parent="pqa-w2zQJshGWEPNDhzT-23">
          <mxGeometry width="725.57003257329" height="370" as="geometry" />
        </mxCell>
        <mxCell id="pqa-w2zQJshGWEPNDhzT-24" value="" style="rounded=0;whiteSpace=wrap;html=1;" vertex="1" parent="pqa-w2zQJshGWEPNDhzT-23">
          <mxGeometry x="12.21" y="10" width="217.79" height="350" as="geometry" />
        </mxCell>
        <mxCell id="pqa-w2zQJshGWEPNDhzT-30" value="" style="rounded=0;whiteSpace=wrap;html=1;" vertex="1" parent="pqa-w2zQJshGWEPNDhzT-23">
          <mxGeometry x="250" y="10" width="230" height="350" as="geometry" />
        </mxCell>
        <mxCell id="pqa-w2zQJshGWEPNDhzT-31" value="" style="rounded=0;whiteSpace=wrap;html=1;" vertex="1" parent="pqa-w2zQJshGWEPNDhzT-23">
          <mxGeometry x="500" y="10" width="210" height="350" as="geometry" />
        </mxCell>
        <mxCell id="pqa-w2zQJshGWEPNDhzT-33" value="Product" style="text;html=1;align=center;verticalAlign=middle;resizable=0;points=[];autosize=1;strokeColor=none;fillColor=none;" vertex="1" parent="pqa-w2zQJshGWEPNDhzT-23">
          <mxGeometry x="80" y="10" width="60" height="30" as="geometry" />
        </mxCell>
        <mxCell id="pqa-w2zQJshGWEPNDhzT-34" value="Basket" style="text;html=1;align=center;verticalAlign=middle;resizable=0;points=[];autosize=1;strokeColor=none;fillColor=none;" vertex="1" parent="pqa-w2zQJshGWEPNDhzT-23">
          <mxGeometry x="332.78999999999996" y="10" width="60" height="30" as="geometry" />
        </mxCell>
        <mxCell id="pqa-w2zQJshGWEPNDhzT-39" value="Order" style="text;html=1;align=center;verticalAlign=middle;resizable=0;points=[];autosize=1;strokeColor=none;fillColor=none;" vertex="1" parent="pqa-w2zQJshGWEPNDhzT-23">
          <mxGeometry x="580" y="10" width="50" height="30" as="geometry" />
        </mxCell>
        <mxCell id="pqa-w2zQJshGWEPNDhzT-41" value="" style="group" vertex="1" connectable="0" parent="pqa-w2zQJshGWEPNDhzT-23">
          <mxGeometry x="39.99999999999999" y="65" width="180" height="230" as="geometry" />
        </mxCell>
        <mxCell id="pqa-w2zQJshGWEPNDhzT-35" value="UI" style="rounded=0;whiteSpace=wrap;html=1;" vertex="1" parent="pqa-w2zQJshGWEPNDhzT-41">
          <mxGeometry x="7.105427357601002e-15" y="15" width="180" height="40" as="geometry" />
        </mxCell>
        <mxCell id="pqa-w2zQJshGWEPNDhzT-36" value="Business Logic" style="rounded=0;whiteSpace=wrap;html=1;" vertex="1" parent="pqa-w2zQJshGWEPNDhzT-41">
          <mxGeometry x="7.105427357601002e-15" y="95" width="180" height="40" as="geometry" />
        </mxCell>
        <mxCell id="pqa-w2zQJshGWEPNDhzT-37" value="Data Access" style="rounded=0;whiteSpace=wrap;html=1;" vertex="1" parent="pqa-w2zQJshGWEPNDhzT-41">
          <mxGeometry x="7.105427357601002e-15" y="175" width="180" height="40" as="geometry" />
        </mxCell>
        <mxCell id="pqa-w2zQJshGWEPNDhzT-38" value="&lt;b&gt;LÃ­ting Product&lt;/b&gt;" style="rounded=0;whiteSpace=wrap;html=1;rotation=-90;" vertex="1" parent="pqa-w2zQJshGWEPNDhzT-41">
          <mxGeometry x="-95" y="95" width="230" height="40" as="geometry" />
        </mxCell>
        <mxCell id="pqa-w2zQJshGWEPNDhzT-42" value="" style="group" vertex="1" connectable="0" parent="pqa-w2zQJshGWEPNDhzT-23">
          <mxGeometry x="272.78999999999996" y="70" width="180" height="230" as="geometry" />
        </mxCell>
        <mxCell id="pqa-w2zQJshGWEPNDhzT-43" value="UI" style="rounded=0;whiteSpace=wrap;html=1;" vertex="1" parent="pqa-w2zQJshGWEPNDhzT-42">
          <mxGeometry x="7.105427357601002e-15" y="15" width="180" height="40" as="geometry" />
        </mxCell>
        <mxCell id="pqa-w2zQJshGWEPNDhzT-44" value="Business Logic" style="rounded=0;whiteSpace=wrap;html=1;" vertex="1" parent="pqa-w2zQJshGWEPNDhzT-42">
          <mxGeometry x="7.105427357601002e-15" y="95" width="180" height="40" as="geometry" />
        </mxCell>
        <mxCell id="pqa-w2zQJshGWEPNDhzT-45" value="Data Access" style="rounded=0;whiteSpace=wrap;html=1;" vertex="1" parent="pqa-w2zQJshGWEPNDhzT-42">
          <mxGeometry x="7.105427357601002e-15" y="175" width="180" height="40" as="geometry" />
        </mxCell>
        <mxCell id="pqa-w2zQJshGWEPNDhzT-46" value="&lt;b&gt;Add To Basket&lt;/b&gt;" style="rounded=0;whiteSpace=wrap;html=1;rotation=-90;" vertex="1" parent="pqa-w2zQJshGWEPNDhzT-42">
          <mxGeometry x="-95" y="95" width="230" height="40" as="geometry" />
        </mxCell>
        <mxCell id="pqa-w2zQJshGWEPNDhzT-67" value="&lt;b&gt;CheckOut Product Order&lt;/b&gt;" style="rounded=0;whiteSpace=wrap;html=1;rotation=-90;" vertex="1" parent="pqa-w2zQJshGWEPNDhzT-23">
          <mxGeometry x="420" y="155" width="225" height="50" as="geometry" />
        </mxCell>
        <mxCell id="pqa-w2zQJshGWEPNDhzT-68" value="" style="ellipse;whiteSpace=wrap;html=1;aspect=fixed;" vertex="1" parent="pqa-w2zQJshGWEPNDhzT-23">
          <mxGeometry x="570" y="110" width="130" height="130" as="geometry" />
        </mxCell>
        <mxCell id="pqa-w2zQJshGWEPNDhzT-69" value="" style="ellipse;whiteSpace=wrap;html=1;aspect=fixed;" vertex="1" parent="pqa-w2zQJshGWEPNDhzT-23">
          <mxGeometry x="582.5" y="122.5" width="107.5" height="107.5" as="geometry" />
        </mxCell>
        <mxCell id="pqa-w2zQJshGWEPNDhzT-70" value="Clean Architechure" style="ellipse;whiteSpace=wrap;html=1;aspect=fixed;" vertex="1" parent="pqa-w2zQJshGWEPNDhzT-23">
          <mxGeometry x="594.38" y="133.13" width="83.75" height="83.75" as="geometry" />
        </mxCell>
        <mxCell id="pqa-w2zQJshGWEPNDhzT-40" style="rounded=0;orthogonalLoop=1;jettySize=auto;html=1;exitX=1;exitY=0.5;exitDx=0;exitDy=0;entryX=0.017;entryY=0.557;entryDx=0;entryDy=0;entryPerimeter=0;" edge="1" parent="1" source="pqa-w2zQJshGWEPNDhzT-4" target="pqa-w2zQJshGWEPNDhzT-16">
          <mxGeometry relative="1" as="geometry" />
        </mxCell>
        <mxCell id="pqa-w2zQJshGWEPNDhzT-72" value="&lt;b&gt;RDMS&lt;/b&gt;" style="shape=cylinder3;whiteSpace=wrap;html=1;boundedLbl=1;backgroundOutline=1;size=15;" vertex="1" parent="1">
          <mxGeometry x="1430" y="200" width="150" height="190" as="geometry" />
        </mxCell>
        <mxCell id="pqa-w2zQJshGWEPNDhzT-73" value="Product Schema" style="shape=cylinder3;whiteSpace=wrap;html=1;boundedLbl=1;backgroundOutline=1;size=15;" vertex="1" parent="1">
          <mxGeometry x="1430" y="330" width="60" height="80" as="geometry" />
        </mxCell>
        <mxCell id="pqa-w2zQJshGWEPNDhzT-74" value="&lt;span style=&quot;color: rgb(0, 0, 0); font-family: Helvetica; font-size: 12px; font-style: normal; font-variant-ligatures: normal; font-variant-caps: normal; font-weight: 400; letter-spacing: normal; orphans: 2; text-align: center; text-indent: 0px; text-transform: none; widows: 2; word-spacing: 0px; -webkit-text-stroke-width: 0px; white-space: normal; background-color: rgb(236, 236, 236); text-decoration-thickness: initial; text-decoration-style: initial; text-decoration-color: initial; float: none; display: inline !important;&quot;&gt;Order Schema&lt;/span&gt;" style="shape=cylinder3;whiteSpace=wrap;html=1;boundedLbl=1;backgroundOutline=1;size=15;" vertex="1" parent="1">
          <mxGeometry x="1520" y="330" width="60" height="80" as="geometry" />
        </mxCell>
        <mxCell id="pqa-w2zQJshGWEPNDhzT-75" style="edgeStyle=orthogonalEdgeStyle;rounded=0;orthogonalLoop=1;jettySize=auto;html=1;exitX=1;exitY=0.5;exitDx=0;exitDy=0;entryX=0.013;entryY=0.447;entryDx=0;entryDy=0;entryPerimeter=0;" edge="1" parent="1" source="pqa-w2zQJshGWEPNDhzT-31" target="pqa-w2zQJshGWEPNDhzT-72">
          <mxGeometry relative="1" as="geometry" />
        </mxCell>
      </root>
    </mxGraphModel>
  </diagram>
</mxfile>
